HIERARCHY
ROOT Root
{
  OFFSET 0.0 0.0 0.0
  CHANNELS 6 Xposition Yposition Zposition Zrotation Yrotation Xrotation
  JOINT Hips
  {
    OFFSET 0.0 100.0 0.0
    CHANNELS 6 Xposition Yposition Zposition Zrotation Yrotation Xrotation
    JOINT Spine1
    {
      OFFSET 5.003913 -0.037094 -0.013727
      CHANNELS 3 Zrotation Yrotation Xrotation
      JOINT Spine2
      {
        OFFSET 7.125363 -1e-06 0.0
        CHANNELS 3 Zrotation Yrotation Xrotation
        JOINT Chest
        {
          OFFSET 7.594027 1e-06 0.0
          CHANNELS 3 Zrotation Yrotation Xrotation
          JOINT Neck1
          {
            OFFSET 26.313086 -0.460272 -0.181672
            CHANNELS 3 Zrotation Yrotation Xrotation
            JOINT Neck2
            {
              OFFSET 8.045911 0.0 0.0
              CHANNELS 3 Zrotation Yrotation Xrotation
              JOINT Head
              {
                OFFSET 6.432774 0.0 0.0
                CHANNELS 3 Zrotation Yrotation Xrotation
                JOINT HeadEnd
                {
                  OFFSET 16.169773 0.06451 0.00362
                  CHANNELS 3 Zrotation Yrotation Xrotation
                }
                JOINT Jaw
                {
                  OFFSET 0.108741 3.12938 0.002639
                  CHANNELS 3 Zrotation Yrotation Xrotation
                }
                JOINT LeftEye
                {
                  OFFSET 4.45173 8.166359 3.206392
                  CHANNELS 3 Zrotation Yrotation Xrotation
                }
                JOINT RightEye
                {
                  OFFSET 4.436895 8.135758 -3.222429
                  CHANNELS 3 Zrotation Yrotation Xrotation
                }
              }
            }
          }
          JOINT LeftShoulder
          {
            OFFSET 23.218927 5.195579 1.621656
            CHANNELS 3 Zrotation Yrotation Xrotation
            JOINT LeftArm
            {
              OFFSET 15.902118 2e-06 -2e-06
              CHANNELS 3 Zrotation Yrotation Xrotation
              JOINT LeftForeArm
              {
                OFFSET 28.739307 0.0 -1e-06
                CHANNELS 3 Zrotation Yrotation Xrotation
                JOINT LeftHand
                {
                  OFFSET 27.093981 -4e-06 0.0
                  CHANNELS 3 Zrotation Yrotation Xrotation
                  JOINT LeftHandThumb1
                  {
                    OFFSET 2.276781 3.380274 0.83384
                    CHANNELS 3 Zrotation Yrotation Xrotation
                    JOINT LeftHandThumb2
                    {
                      OFFSET 4.705309 -1e-06 -1e-06
                      CHANNELS 3 Zrotation Yrotation Xrotation
                      JOINT LeftHandThumb3
                      {
                        OFFSET 2.798515 0.0 3e-06
                        CHANNELS 3 Zrotation Yrotation Xrotation
                        JOINT LeftHandThumbEnd
                        {
                          OFFSET 3.180793 4e-06 -4e-06
                          CHANNELS 3 Zrotation Yrotation Xrotation
                        }
                      }
                    }
                  }
                  JOINT LeftHandIndex1
                  {
                    OFFSET 3.247786 2.352677 0.137192
                    CHANNELS 3 Zrotation Yrotation Xrotation
                    JOINT LeftHandIndex2
                    {
                      OFFSET 6.367095 1e-06 0.0
                      CHANNELS 3 Zrotation Yrotation Xrotation
                      JOINT LeftHandIndex3
                      {
                        OFFSET 3.662364 0.0 0.0
                        CHANNELS 3 Zrotation Yrotation Xrotation
                        JOINT LeftHandIndex4
                        {
                          OFFSET 2.329242 4e-06 -4e-06
                          CHANNELS 3 Zrotation Yrotation Xrotation
                          JOINT LeftHandIndexEnd
                          {
                            OFFSET 2.767823 1e-06 0.0
                            CHANNELS 3 Zrotation Yrotation Xrotation
                          }
                        }
                      }
                    }
                  }
                  JOINT LeftHandMiddle1
                  {
                    OFFSET 3.163612 0.945023 -0.406112
                    CHANNELS 3 Zrotation Yrotation Xrotation
                    JOINT LeftHandMiddle2
                    {
                      OFFSET 6.276789 3e-06 0.0
                      CHANNELS 3 Zrotation Yrotation Xrotation
                      JOINT LeftHandMiddle3
                      {
                        OFFSET 4.35652 -1e-06 4e-06
                        CHANNELS 3 Zrotation Yrotation Xrotation
                        JOINT LeftHandMiddle4
                        {
                          OFFSET 2.996877 0.0 8e-06
                          CHANNELS 3 Zrotation Yrotation Xrotation
                          JOINT LeftHandMiddleEnd
                          {
                            OFFSET 2.323256 3e-06 -4e-06
                            CHANNELS 3 Zrotation Yrotation Xrotation
                          }
                        }
                      }
                    }
                  }
                  JOINT LeftHandRing1
                  {
                    OFFSET 2.882606 -0.309162 0.107445
                    CHANNELS 3 Zrotation Yrotation Xrotation
                    JOINT LeftHandRing2
                    {
                      OFFSET 6.033198 0.0 4e-06
                      CHANNELS 3 Zrotation Yrotation Xrotation
                      JOINT LeftHandRing3
                      {
                        OFFSET 4.350578 3e-06 0.0
                        CHANNELS 3 Zrotation Yrotation Xrotation
                        JOINT LeftHandRing4
                        {
                          OFFSET 2.651321 2e-06 -7e-06
                          CHANNELS 3 Zrotation Yrotation Xrotation
                          JOINT LeftHandRingEnd
                          {
                            OFFSET 1.937663 1e-06 -4e-06
                            CHANNELS 3 Zrotation Yrotation Xrotation
                          }
                        }
                      }
                    }
                  }
                  JOINT LeftHandPinky1
                  {
                    OFFSET 2.865315 -1.525436 0.575687
                    CHANNELS 3 Zrotation Yrotation Xrotation
                    JOINT LeftHandPinky2
                    {
                      OFFSET 5.54936 1e-06 -8e-06
                      CHANNELS 3 Zrotation Yrotation Xrotation
                      JOINT LeftHandPinky3
                      {
                        OFFSET 3.070974 0.0 -4e-06
                        CHANNELS 3 Zrotation Yrotation Xrotation
                        JOINT LeftHandPinky4
                        {
                          OFFSET 1.549672 1e-06 0.0
                          CHANNELS 3 Zrotation Yrotation Xrotation
                          JOINT LeftHandPinkyEnd
                          {
                            OFFSET 1.952123 0.0 0.0
                            CHANNELS 3 Zrotation Yrotation Xrotation
                          }
                        }
                      }
                    }
                  }
                }
              }
            }
          }
          JOINT RightShoulder
          {
            OFFSET 23.161716 5.296122 -1.380114
            CHANNELS 3 Zrotation Yrotation Xrotation
            JOINT RightArm
            {
              OFFSET -16.027195 -2e-06 1.1e-05
              CHANNELS 3 Zrotation Yrotation Xrotation
              JOINT RightForeArm
              {
                OFFSET -28.736639 4e-06 2e-06
                CHANNELS 3 Zrotation Yrotation Xrotation
                JOINT RightHand
                {
                  OFFSET -27.133619 6e-06 0.0
                  CHANNELS 3 Zrotation Yrotation Xrotation
                  JOINT RightHandThumb1
                  {
                    OFFSET -2.274328 -3.351035 -0.83067
                    CHANNELS 3 Zrotation Yrotation Xrotation
                    JOINT RightHandThumb2
                    {
                      OFFSET -4.703594 -3e-06 2e-06
                      CHANNELS 3 Zrotation Yrotation Xrotation
                      JOINT RightHandThumb3
                      {
                        OFFSET -2.794935 -4e-06 -3e-06
                        CHANNELS 3 Zrotation Yrotation Xrotation
                        JOINT RightHandThumbEnd
                        {
                          OFFSET -3.183852 4e-06 1e-06
                          CHANNELS 3 Zrotation Yrotation Xrotation
                        }
                      }
                    }
                  }
                  JOINT RightHandIndex1
                  {
                    OFFSET -3.253496 -2.33755 -0.127667
                    CHANNELS 3 Zrotation Yrotation Xrotation
                    JOINT RightHandIndex2
                    {
                      OFFSET -6.344434 0.0 0.0
                      CHANNELS 3 Zrotation Yrotation Xrotation
                      JOINT RightHandIndex3
                      {
                        OFFSET -3.654871 0.0 -8e-06
                        CHANNELS 3 Zrotation Yrotation Xrotation
                        JOINT RightHandIndex4
                        {
                          OFFSET -2.327586 -1e-06 0.0
                          CHANNELS 3 Zrotation Yrotation Xrotation
                          JOINT RightHandIndexEnd
                          {
                            OFFSET -2.770001 3e-06 8e-06
                            CHANNELS 3 Zrotation Yrotation Xrotation
                          }
                        }
                      }
                    }
                  }
                  JOINT RightHandMiddle1
                  {
                    OFFSET -3.168223 -0.944764 0.411762
                    CHANNELS 3 Zrotation Yrotation Xrotation
                    JOINT RightHandMiddle2
                    {
                      OFFSET -6.266691 -1e-06 -4e-06
                      CHANNELS 3 Zrotation Yrotation Xrotation
                      JOINT RightHandMiddle3
                      {
                        OFFSET -4.348901 0.0 0.0
                        CHANNELS 3 Zrotation Yrotation Xrotation
                        JOINT RightHandMiddle4
                        {
                          OFFSET -3.00024 2e-06 -4e-06
                          CHANNELS 3 Zrotation Yrotation Xrotation
                          JOINT RightHandMiddleEnd
                          {
                            OFFSET -2.321477 -4e-06 -4e-06
                            CHANNELS 3 Zrotation Yrotation Xrotation
                          }
                        }
                      }
                    }
                  }
                  JOINT RightHandRing1
                  {
                    OFFSET -2.885654 0.293261 -0.119232
                    CHANNELS 3 Zrotation Yrotation Xrotation
                    JOINT RightHandRing2
                    {
                      OFFSET -6.032835 -1e-06 -4e-06
                      CHANNELS 3 Zrotation Yrotation Xrotation
                      JOINT RightHandRing3
                      {
                        OFFSET -4.33881 0.0 -4e-06
                        CHANNELS 3 Zrotation Yrotation Xrotation
                        JOINT RightHandRing4
                        {
                          OFFSET -2.654903 -4e-06 -4e-06
                          CHANNELS 3 Zrotation Yrotation Xrotation
                          JOINT RightHandRingEnd
                          {
                            OFFSET -1.935122 0.0 4e-06
                            CHANNELS 3 Zrotation Yrotation Xrotation
                          }
                        }
                      }
                    }
                  }
                  JOINT RightHandPinky1
                  {
                    OFFSET -2.866241 1.503904 -0.60527
                    CHANNELS 3 Zrotation Yrotation Xrotation
                    JOINT RightHandPinky2
                    {
                      OFFSET -5.553177 -2e-06 0.0
                      CHANNELS 3 Zrotation Yrotation Xrotation
                      JOINT RightHandPinky3
                      {
                        OFFSET -3.062664 -1e-06 -4e-06
                        CHANNELS 3 Zrotation Yrotation Xrotation
                        JOINT RightHandPinky4
                        {
                          OFFSET -1.546529 2e-06 4e-06
                          CHANNELS 3 Zrotation Yrotation Xrotation
                          JOINT RightHandPinkyEnd
                          {
                            OFFSET -1.952341 0.0 -4e-06
                            CHANNELS 3 Zrotation Yrotation Xrotation
                          }
                        }
                      }
                    }
                  }
                }
              }
            }
          }
        }
      }
    }
    JOINT LeftLeg
    {
      OFFSET -8.443107 2.567604 10.043214
      CHANNELS 3 Zrotation Yrotation Xrotation
      JOINT LeftShin
      {
        OFFSET 43.229198 1e-06 -1e-06
        CHANNELS 3 Zrotation Yrotation Xrotation
        JOINT LeftFoot
        {
          OFFSET 42.298611 1e-06 1e-06
          CHANNELS 3 Zrotation Yrotation Xrotation
          JOINT LeftToeBase
          {
            OFFSET 14.165858 1e-06 0.0
            CHANNELS 3 Zrotation Yrotation Xrotation
            JOINT LeftToeEnd
            {
              OFFSET 6.7141 -0.234461 0.0
              CHANNELS 3 Zrotation Yrotation Xrotation
            }
          }
        }
      }
    }
    JOINT RightLeg
    {
      OFFSET -8.303923 2.592729 -10.047278
      CHANNELS 3 Zrotation Yrotation Xrotation
      JOINT RightShin
      {
        OFFSET -43.369682 0.0 1e-06
        CHANNELS 3 Zrotation Yrotation Xrotation
        JOINT RightFoot
        {
          OFFSET -42.260784 4e-06 2e-06
          CHANNELS 3 Zrotation Yrotation Xrotation
          JOINT RightToeBase
          {
            OFFSET -14.222245 -2e-06 -1e-06
            CHANNELS 3 Zrotation Yrotation Xrotation
            JOINT RightToeEnd
            {
              OFFSET -6.660062 0.232574 -2e-06
              CHANNELS 3 Zrotation Yrotation Xrotation
            }
          }
        }
      }
    }
  }
}
MOTION
Frames: 4
Frame Time: 0.03333333333333333
0.0 0.0 0.0 0.0 -0.0 0.0 -0.395298 99.742378 -1.138417 90.314255 4.925137 90.048607 -1.34857 -0.701501 -0.431737 -11.129749 -0.893457 -0.814892 19.831547 1.601248 -2.670834 15.043468 1.050635 2.788378 -2.467998 -0.701764 1.745415 -27.021145 0.230748 1.919817 6e-06 -0.0 -0.0 -0.000433 -0.001779 -0.061035 0.080704 0.048171 -0.042904 0.078804 -0.050811 -0.071449 -131.504181 -74.734283 144.745056 31.859947 -57.147999 13.129946 32.135212 0.465429 0.251134 -3.207107 -7.093956 11.07188 17.636625 -26.322725 52.411182 -19.466656 -14.395592 29.410378 -0.0 -8.774819 -2e-06 16.47035 -18.099905 5.981993 -0.609776 -1.795652 -3.889327 -4.807087 -11.046809 -2.937846 5e-06 -20.976015 -3e-06 -5.01997 -25.033556 -4.031878 3e-06 1e-06 0.0 -10.634531 -5.686968 -3.565587 10.573271 -17.922949 -3.113897 2e-06 -13.821206 1e-06 -0.501779 -31.181505 -4.027016 -11.937464 -60.011593 7.848707 -13.982712 -7.150197 -2.875039 13.772727 -8.401489 -3.218243 0.347733 -34.211544 0.771655 -0.96303 -17.73337 2.621019 -0.0 -2e-06 0.0 -17.346413 -20.095213 -4.201779 21.757555 -1.638375 3.866426 2e-06 -6.338824 -1e-06 -1.69759 -22.591742 -6.194002 -2e-06 -1e-06 -1e-06 25.348883 -71.116959 168.79451 35.963501 -50.981556 13.525504 33.1884 -0.655029 -0.09021 -10.398833 -3.399716 -0.491172 22.182116 -20.375895 49.933319 -16.701817 -16.74353 28.476532 -4e-06 -12.690601 -0.0 16.323038 -17.665535 2.439642 -0.10592 -1.513856 -4.275883 -5.039041 -5.612871 -2.953555 4e-06 -11.020523 -3e-06 -6.111297 -15.895336 -3.840469 -1e-06 2e-06 1e-06 -10.283369 -5.680287 -4.341835 11.028297 -11.302404 -2.372634 -1.384269 -14.238581 -6.32012 -0.625436 -26.924191 -3.8276 -3.921833 -49.947243 -4.136107 -13.708524 -7.363475 -3.72094 18.141148 -14.052739 -3.242674 9e-06 -18.787271 -3e-06 -0.429711 -8.456043 2.555505 1e-06 -1e-06 1e-06 -15.923536 -20.094482 -5.473586 30.419214 -7.190827 1.735926 4e-06 -8.162927 -1e-06 -1.861897 -22.861473 -6.167944 -1e-06 -3e-06 -2e-06 -179.766464 -3.191711 -6.894172 15.529113 -0.060587 -0.060892 -79.354202 -3.089278 -4.175338 -5.61413 1.586951 2.142513 -1.0 -0.0 -0.0 0.404646 -3.975629 -6.600949 16.122665 0.018179 -0.111967 -79.849777 -5.143096 -6.694997 -5.414417 0.691016 1.662362 -1.000002 1e-06 -0.0 
0.0 0.0 0.0 0.0 -0.0 0.0 -0.41922 99.767944 -1.135557 90.315269 4.935426 90.106865 -1.366644 -0.708877 -0.44952 -11.124742 -0.869305 -0.771227 19.827477 1.601254 -2.699278 14.932485 1.041675 2.764763 -2.436436 -0.706778 1.792176 -26.998812 0.166608 1.928755 6e-06 -0.0 -0.0 -0.000659 -0.000209 -0.040176 0.101925 0.048607 -0.019773 0.100466 -0.047988 -0.052469 -131.893585 -74.679413 145.22879 31.756367 -56.957253 13.243082 32.445801 0.434188 0.210461 -3.236851 -7.288871 10.981884 17.636627 -26.322725 52.411182 -19.466661 -14.395596 29.410381 -1e-06 -8.774821 -1e-06 16.415565 -18.037981 5.984025 -0.609777 -1.795654 -3.889327 -4.807087 -11.046811 -2.93785 6e-06 -20.976015 -4e-06 -5.019968 -25.033556 -4.031879 5e-06 0.0 1e-06 -10.634532 -5.686969 -3.565587 10.573277 -17.922953 -3.113902 5e-06 -13.821206 1e-06 -0.501771 -31.181505 -4.027015 -11.890475 -59.945599 7.878208 -13.982712 -7.150196 -2.875041 13.77273 -8.401493 -3.218241 0.347739 -34.211555 0.771652 -0.963027 -17.73337 2.621019 -1e-06 -1e-06 0.0 -17.346415 -20.095211 -4.201777 21.757555 -1.638374 3.866425 3e-06 -6.338823 -2e-06 -1.697587 -22.591742 -6.194003 -1e-06 -1e-06 -2e-06 25.056185 -71.034904 169.179352 35.853992 -50.757835 13.550714 33.383007 -0.634192 -0.100743 -10.490216 -3.599789 -0.520833 22.182121 -20.375891 49.933315 -16.701807 -16.743528 28.476522 -2e-06 -12.690601 -1e-06 16.304411 -17.663847 2.425733 -0.105918 -1.513855 -4.275878 -5.039043 -5.612871 -2.953557 4e-06 -11.02052 -3e-06 -6.1113 -15.89533 -3.840472 -1e-06 1e-06 -0.0 -10.283373 -5.680288 -4.341838 11.028293 -11.302402 -2.372631 -1.384271 -14.238577 -6.320119 -0.625439 -26.924187 -3.827602 -3.928742 -50.00737 -4.140126 -13.708526 -7.363475 -3.720941 18.141146 -14.052736 -3.242671 6e-06 -18.787268 -2e-06 -0.429712 -8.456043 2.555504 1e-06 -0.0 1e-06 -15.923538 -20.094482 -5.473585 30.41921 -7.190823 1.73593 3e-06 -8.162925 1e-06 -1.861904 -22.861465 -6.167942 0.0 -4e-06 -1e-06 -179.634537 -3.193411 -6.831202 15.266187 -0.048838 -0.018935 -79.218048 -3.093244 -4.284348 -5.640681 1.611294 2.152045 -1.0 0.0 0.0 0.552208 -3.932006 -6.582224 15.86599 0.013183 -0.094406 -79.729858 -5.235828 -6.687312 -5.43598 0.675022 1.661362 -1.000003 1e-06 0.0 
0.0 0.0 0.0 0.0 -0.0 0.0 -0.444101 99.780861 -1.151457 90.330185 4.978951 90.17691 -1.37682 -0.720358 -0.454539 -11.122324 -0.856827 -0.748942 19.870394 1.596222 -2.712709 14.795863 1.035758 2.781844 -2.448379 -0.709842 1.774353 -26.912195 0.082442 1.918727 5e-06 0.0 -0.0 -0.003754 0.001621 -0.029069 0.0991 0.047642 -0.0083 0.101069 -0.043628 -0.042038 -132.328033 -74.616104 145.701965 31.501293 -56.714455 13.520153 32.973042 0.394117 0.175495 -3.289506 -7.520605 10.809419 17.636625 -26.322718 52.411182 -19.46666 -14.395596 29.410385 0.0 -8.774822 -1e-06 16.408152 -18.013973 5.985223 -0.609777 -1.795654 -3.889326 -4.807088 -11.046809 -2.93785 5e-06 -20.976011 -5e-06 -5.01997 -25.033552 -4.031882 7e-06 2e-06 -1e-06 -10.634535 -5.686972 -3.565589 10.573272 -17.922947 -3.1139 2e-06 -13.821206 1e-06 -0.501782 -31.181498 -4.027015 -11.914919 -59.901711 7.896869 -13.982714 -7.150198 -2.87504 13.772728 -8.40149 -3.218242 0.347734 -34.211544 0.771653 -0.963028 -17.733366 2.621018 -1e-06 -1e-06 -2e-06 -17.34642 -20.095217 -4.20178 21.757557 -1.638374 3.866426 1e-06 -6.338822 -1e-06 -1.697588 -22.591747 -6.194008 -0.0 -3e-06 -2e-06 24.628834 -70.952187 169.642776 35.663219 -50.441517 13.768567 33.764126 -0.656579 -0.11971 -10.640471 -3.709091 -0.509795 22.182114 -20.375887 49.933315 -16.701813 -16.743526 28.476528 -4e-06 -12.6906 -3e-06 16.299253 -17.636644 2.424936 -0.10592 -1.513857 -4.275885 -5.039041 -5.612871 -2.953554 5e-06 -11.02052 -6e-06 -6.111295 -15.89533 -3.84047 -1e-06 1e-06 -0.0 -10.28337 -5.680289 -4.34184 11.028292 -11.302402 -2.372634 -1.384269 -14.238579 -6.320119 -0.625435 -26.924191 -3.827604 -3.935614 -50.021351 -4.153573 -13.708522 -7.363475 -3.720941 18.141146 -14.052739 -3.242673 1e-05 -18.78727 -5e-06 -0.429711 -8.456043 2.555506 1e-06 1e-06 -0.0 -15.923532 -20.094482 -5.473587 30.41921 -7.190827 1.735926 3e-06 -8.162927 -1e-06 -1.861896 -22.861471 -6.167946 -1e-06 -4e-06 -2e-06 -179.524933 -3.186778 -6.789684 15.093843 -0.045007 0.0066 -79.116531 -3.071896 -4.344041 -5.616859 1.614428 2.155585 -0.999998 -0.0 0.0 0.663193 -3.915656 -6.564271 15.738476 0.019246 -0.087994 -79.663643 -5.366633 -6.702261 -5.430244 0.67087 1.661551 -1.000001 -0.0 -0.0 
0.0 0.0 0.0 0.0 -0.0 0.0 -0.470807 99.787216 -1.174238 90.350929 5.026396 90.240295 -1.384453 -0.733057 -0.446327 -11.119209 -0.845823 -0.737218 19.91922 1.583975 -2.692768 14.633954 1.015198 2.800142 -2.47279 -0.720363 1.745526 -26.841164 0.011289 1.88583 6e-06 -0.0 -0.0 -0.007822 0.001786 -0.029435 0.088581 0.045865 -0.008189 0.092491 -0.041736 -0.043229 -132.863525 -74.531181 146.271576 31.209635 -56.398048 13.93638 33.67857 0.369009 0.155427 -3.315384 -7.732929 10.688997 17.636627 -26.322725 52.411182 -19.46666 -14.395596 29.410385 0.0 -8.774821 -3e-06 16.411314 -17.991276 5.980181 -0.609778 -1.795655 -3.889328 -4.807087 -11.046808 -2.937851 4e-06 -20.976011 -3e-06 -5.019971 -25.033552 -4.031878 6e-06 1e-06 0.0 -10.634533 -5.686971 -3.565588 10.573271 -17.922947 -3.113899 3e-06 -13.821206 1e-06 -0.501778 -31.181498 -4.027015 -11.93063 -59.860058 7.897548 -13.982714 -7.150198 -2.875042 13.772727 -8.401489 -3.21824 0.347735 -34.211544 0.771652 -0.963029 -17.733366 2.621019 -2e-06 0.0 -1e-06 -17.346418 -20.095217 -4.20178 21.757557 -1.638374 3.866425 2e-06 -6.338823 -1e-06 -1.697589 -22.591745 -6.194008 -1e-06 -1e-06 -1e-06 24.186579 -70.87056 170.100784 35.471542 -50.013603 14.314271 34.312298 -0.636418 -0.126545 -10.800303 -3.879833 -0.388652 22.18211 -20.375893 49.933319 -16.701817 -16.74353 28.476528 -4e-06 -12.690601 -1e-06 16.274603 -17.590923 2.437192 -0.10592 -1.513856 -4.275881 -5.039041 -5.612872 -2.953554 5e-06 -11.020523 -1e-06 -6.111296 -15.895334 -3.840472 -0.0 0.0 -0.0 -10.283369 -5.680288 -4.341837 11.028293 -11.302404 -2.372632 -1.384269 -14.238579 -6.320118 -0.625437 -26.924187 -3.827602 -3.962848 -49.97065 -4.135992 -13.708526 -7.363475 -3.720938 18.14115 -14.052739 -3.242677 9e-06 -18.78727 -3e-06 -0.42971 -8.456046 2.555504 2e-06 3e-06 1e-06 -15.923536 -20.094482 -5.473581 30.41921 -7.190824 1.735924 3e-06 -8.162927 -0.0 -1.861902 -22.861467 -6.167941 1e-06 -4e-06 -3e-06 -179.44043 -3.18284 -6.78878 14.975499 -0.041894 0.018333 -79.037018 -3.033646 -4.386137 -5.602267 1.609836 2.15286 -0.999998 0.0 -0.0 0.736046 -3.914871 -6.572344 15.68737 0.027843 -0.092143 -79.632828 -5.454758 -6.735253 -5.436081 0.664076 1.660004 -1.000001 -0.0 0.0 
